<svg height="32" width="32" xmlns="http://www.w3.org/2000/svg"><path d="m18.779 32c-1.315 0-2.704-.209-4.168-.627-1.464-.419-2.899-1.046-4.303-1.883-1.404-.836-2.681-1.905-3.832-3.204-1.15-1.3-2.061-2.824-2.734-4.572-.672-1.748-1.008-3.742-1.008-5.983 0-2.151.336-4.071 1.008-5.759.673-1.688 1.576-3.16 2.712-4.415 1.135-1.254 2.405-2.293 3.809-3.114 1.405-.822 2.854-1.435 4.348-1.838s2.913-.605 4.257-.605c1.524 0 2.854.179 3.989.538 1.136.358 2.062.724 2.779 1.098.717.373 1.165.635 1.344.784.538.329 1.046.702 1.524 1.121.478.418.732.971.762 1.658 0 .358-.067.709-.202 1.053-.134.344-.336.71-.605 1.098-.478.687-.933 1.188-1.367 1.502-.433.313-.874.47-1.322.47-.358 0-.694-.09-1.008-.269s-.71-.418-1.188-.717c-.209-.149-.508-.336-.896-.56-.389-.224-.911-.433-1.569-.628-.657-.194-1.494-.291-2.51-.291-1.045 0-2.099.187-3.159.56-1.061.374-2.039.934-2.936 1.681-.896.747-1.613 1.696-2.151 2.846s-.807 2.487-.807 4.011c0 1.584.277 2.943.829 4.079.553 1.135 1.278 2.076 2.174 2.823s1.875 1.307 2.936 1.681c1.06.373 2.099.56 3.114.56.897 0 1.666-.09 2.309-.269.642-.179 1.195-.396 1.658-.65s.859-.485 1.188-.694c.328-.21.664-.404 1.008-.583s.695-.269 1.053-.269c.418 0 .844.164 1.277.493.434.329.874.852 1.323 1.569.268.388.478.769.627 1.143.149.373.209.739.179 1.098 0 .627-.239 1.142-.717 1.546-.478.403-.986.769-1.524 1.098-.239.119-.702.381-1.389.784-.687.404-1.598.777-2.734 1.121-1.135.343-2.495.515-4.078.515z" fill="#d45e79"/></svg>