<?xml version="1.0" encoding="utf-8"?><svg xmlns="http://www.w3.org/2000/svg"><symbol viewBox="0 0 24 24" id="book"><path d="M19 3v18H8a3 3 0 0 1-3-3V6a3 3 0 0 1 3-3h11z"/><path d="M5 18a3 3 0 0 1 3-3h11"/></symbol><symbol viewBox="0 0 24 24" id="home-alt2"><path d="M2 12L5 9.3M22 12L19 9.3M19 9.3L12 3L5 9.3M19 9.3V21H5V9.3"/></symbol><symbol viewBox="0 0 24 24" id="people"><path d="M1 18C1 15.75 4 15.75 5.5 14.25 6.25 13.5 4 13.5 4 9.75 4 7.25025 4.99975 6 7 6 9.00025 6 10 7.25025 10 9.75 10 13.5 7.75 13.5 8.5 14.25 10 15.75 13 15.75 13 18M12.7918114 15.7266684C13.2840551 15.548266 13.6874862 15.3832994 14.0021045 15.2317685 14.552776 14.9665463 15.0840574 14.6659426 15.5 14.25 16.25 13.5 14 13.5 14 9.75 14 7.25025 14.99975 6 17 6 19.00025 6 20 7.25025 20 9.75 20 13.5 17.75 13.5 18.5 14.25 20 15.75 23 15.75 23 18"/><path stroke-linecap="round" d="M12,16 C12.3662741,15.8763472 12.6302112,15.7852366 12.7918114,15.7266684"/></symbol><symbol viewBox="0 0 24 24" id="search"><path d="M14.4121122,14.4121122 L20,20"/><circle cx="10" cy="10" r="6"/></symbol><symbol viewBox="0 0 24 24" id="timer"><path d="M6.58748441 4.80875867C4.40860039 6.45129836 3 9.06115105 3 12 3 16.9705627 7.02943725 21 12 21 16.9705627 21 21 16.9705627 21 12 21 7.02943725 16.9705627 3 12 3L12 7M12 13L8 9"/></symbol></svg>