<?xml version="1.0" encoding="utf-8"?><svg xmlns="http://www.w3.org/2000/svg"><symbol viewBox="0 0 24 24" id="book"><path d="M19 3v18H8a3 3 0 0 1-3-3V6a3 3 0 0 1 3-3h11z"/><path d="M5 18a3 3 0 0 1 3-3h11"/></symbol><symbol viewBox="0 0 24 24" id="close"><path d="M6.34314575 6.34314575L17.6568542 17.6568542M6.34314575 17.6568542L17.6568542 6.34314575"/></symbol><symbol viewBox="0 0 24 24" id="hamburger"><path d="M6 7L18 7M6 12L18 12M6 17L18 17"/></symbol><symbol viewBox="0 0 24 24" id="home-alt2"><path d="M2 12L5 9.3M22 12L19 9.3M19 9.3L12 3L5 9.3M19 9.3V21H5V9.3"/></symbol><symbol viewBox="0 0 24 24" id="people"><path d="M1 18C1 15.75 4 15.75 5.5 14.25 6.25 13.5 4 13.5 4 9.75 4 7.25025 4.99975 6 7 6 9.00025 6 10 7.25025 10 9.75 10 13.5 7.75 13.5 8.5 14.25 10 15.75 13 15.75 13 18M12.7918114 15.7266684C13.2840551 15.548266 13.6874862 15.3832994 14.0021045 15.2317685 14.552776 14.9665463 15.0840574 14.6659426 15.5 14.25 16.25 13.5 14 13.5 14 9.75 14 7.25025 14.99975 6 17 6 19.00025 6 20 7.25025 20 9.75 20 13.5 17.75 13.5 18.5 14.25 20 15.75 23 15.75 23 18"/><path stroke-linecap="round" d="M12,16 C12.3662741,15.8763472 12.6302112,15.7852366 12.7918114,15.7266684"/></symbol><symbol viewBox="0 0 24 24" id="search"><path d="M14.4121122,14.4121122 L20,20"/><circle cx="10" cy="10" r="6"/></symbol><symbol viewBox="0 0 24 24" id="timer"><path d="M6.58748441 4.80875867C4.40860039 6.45129836 3 9.06115105 3 12 3 16.9705627 7.02943725 21 12 21 16.9705627 21 21 16.9705627 21 12 21 7.02943725 16.9705627 3 12 3L12 7M12 13L8 9"/></symbol><symbol viewBox="0 0 24 24" id="person"><path d="M4,20 C4,17 8,17 10,15 C11,14 8,14 8,9 C8,5.667 9.333,4 12,4 C14.667,4 16,5.667 16,9 C16,14 13,14 14,15 C16,17 20,17 20,20"/></symbol><symbol viewBox="0 0 24 24" id="plus"><path d="M20 12L4 12M12 4L12 20"/></symbol><symbol viewBox="0 0 24 24" id="chevron-down"><polyline points="6 10 12 16 18 10"/></symbol><symbol viewBox="0 0 24 24" id="chevron-up"><polyline points="6 14 12 8 18 14 18 14"/></symbol><symbol viewBox="0 0 24 24" id="restaurant"><path d="M8 4L8 20M18 12C16 11.3333333 15 10 15 8 15 6 16 4.66666667 18 4L18 20 18 12zM5 4L5 7C5 8.65685425 6.34314575 10 8 10L8 10C9.65685425 10 11 8.65685425 11 7L11 4"/></symbol><symbol viewBox="0 0 24 24" id="controls"><path d="M17 18L17 6M12 18L12 6M7 18L7 6M5 8L9 8M10 16L14 16M15 12L19 12"/></symbol><symbol viewBox="0 0 24 24" id="bin"><path d="M19 6L5 6M14 5L10 5M6 10L6 20C6 20.6666667 6.33333333 21 7 21 7.66666667 21 11 21 17 21 17.6666667 21 18 20.6666667 18 20 18 19.3333333 18 16 18 10"/></symbol><symbol viewBox="0 0 24 24" id="edit"><path d="M18.4142136 4.41421356L19.5857864 5.58578644C20.366835 6.36683502 20.366835 7.63316498 19.5857864 8.41421356L8 20 4 20 4 16 15.5857864 4.41421356C16.366835 3.63316498 17.633165 3.63316498 18.4142136 4.41421356zM14 6L18 10"/></symbol><symbol viewBox="0 0 24 24" id="folder"><path d="M3 5h6l1 2h11v12H3z"/></symbol></svg>