<svg viewBox="0 0 180 120"
  xmlns="http://www.w3.org/2000/svg">
  <path d="m0 0h180v120h-180z" fill="#F5F2F8"/>
  <g fill="#CFBEDA">
    <path d="m52.9 54.7c.3.3.7.4 1.1.4.5 0 .9-.2 1.3-.5l1.6-1.3 1.9.6c.8.2 1.6-.1 2.1-.7.4-.6.5-1.3.3-2l-.8-1.8 1-1.7c.4-.7.4-1.6 0-2.3-.4-.6-1.1-1-1.8-1l-2 .2-1.1-1.5c-.5-.7-1.3-1-2.1-.7-.8.2-1.4.8-1.4 1.6l-.5 2-1.8.7c-.9.2-1.4 1-1.4 1.9 0 .7.4 1.4 1 1.8l1.7 1v1.6c0 .7.3 1.3.9 1.7z"/>
    <path d="m129.3 44.1-1.9-.6-.6-2c-.2-.8-.8-1.3-1.5-1.5h-.6c-.7 0-1.3.3-1.6.9l-1.2 1.6h-2c-.7 0-1.4.3-1.7.9-.3.4-.5 1.1 0 2.3l1.2 1.6-.7 2.1c-.2.7 0 1.4.5 2 .4.4 1 .6 1.6.7h.5l1.9-.6 1.8 1.3c.3.2.7.3 1.1.3.3 0 .7-.1 1-.3.8-.3 1.3-1.1 1.3-2v-2l1.7-1.1c.6-.4 1-1.1.9-1.9-.4-.7-.9-1.4-1.7-1.7z"/>
    <path d="m60.5 31.3h.2c1 0 2-.4 2.8-1 1.9-1.6 2.1-4.3.5-6.2-1.7-1.7-4.4-1.9-6.2-.4-.9.7-1.4 1.8-1.5 2.9-.1 1.2.3 2.4 1 3.3.9.9 2 1.4 3.2 1.4zm-1.3-6c.4-.4 1-.6 1.5-.6 1.2.2 2.1 1.3 2 2.5-.1 1-.9 1.8-2 2h-.3c-.6 0-1.1-.3-1.5-.7-.4-.5-.6-1.1-.5-1.7s.4-1.2.8-1.5z"/>
    <path d="m80.8 42.3c0 .6.5 1 1 1 .6 0 1.1-.4 1.1-1-1-7.9-4.9-15.1-11-20.2-.4-.4-1-.4-1.4-.1 0 0 0 0-.1.1-.4.4-.4 1.1 0 1.5 5.7 4.8 9.4 11.4 10.4 18.7z"/>
    <path d="m72.7 46.5c.2.3.6.5 1 .5.2.1.4.1.5 0 .5-.3.7-.9.4-1.5-2.2-4-6.2-6.7-10.8-7.2-.6 0-1.1.5-1.1 1.1s.5 1.1 1.1 1.1c3.8.5 7 2.7 8.9 6z"/>
    <path d="m95.1 42c.6 0 1.1-.4 1.1-1 1.1-7.3 4.8-13.9 10.4-18.6.4-.4.4-1.1 0-1.5-.4-.4-1.1-.4-1.5 0-6.1 5.1-10 12.3-11 20.2 0 .5.5 1 1 .9z"/>
    <path d="m103 42.2c-.3.5-.1 1.1.4 1.4h.1c.2.1.3.1.5 0 .4 0 .8-.2.9-.6 1.9-3.3 5.2-5.6 9-6.1.6 0 1-.5 1-1.1s-.5-1-1.1-1c-4.7.5-8.7 3.3-10.8 7.4z"/>
    <path d="m121.6 32.6h.2c1 0 2-.4 2.8-1 .9-.7 1.4-1.8 1.5-2.9.1-1.2-.2-2.4-1-3.3-.7-.9-1.8-1.4-2.9-1.4-1.2-.1-2.3.3-3.2 1s-1.4 1.8-1.5 2.9c-.1 1.2.3 2.4 1 3.3.8.8 2 1.4 3.1 1.4zm-1.2-6c.4-.3.9-.4 1.4-.4h.3c.6 0 1.1.3 1.5.7.4.5.6 1.1.5 1.8 0 .6-.3 1.1-.7 1.4s-.9.5-1.5.6h-.2c-.6-.1-1.1-.4-1.5-1-.4-.5-.6-1.1-.6-1.7.1-.6.4-1.1.8-1.4z"/>
    <path d="m111.3 45.6c-1.2-.1-2.4.2-3.3 1-.9.7-1.4 1.8-1.5 2.9-.1 1.2.3 2.4 1 3.3.9 1 2.1 1.6 3.5 1.6 1 0 2-.4 2.8-1 1.8-1.6 2-4.5.3-6.3-.6-1-1.7-1.5-2.8-1.5zm1.2 6.1c-1 .8-2.4.7-3.2-.3-.4-.5-.6-1.1-.5-1.8 0-.6.3-1.1.7-1.4.4-.4 1-.6 1.6-.6.6.1 1.2.4 1.6.8.6 1 .6 2.4-.2 3.3z"/>
    <path d="m125.8 59c-1.2-.1-2.4.2-3.3 1-.9.7-1.4 1.8-1.5 2.9-.1 1.2.3 2.4 1 3.3.8.9 1.9 1.4 3.1 1.4h.2c1 0 2-.4 2.8-1 .9-.7 1.4-1.8 1.5-2.9.1-1.2-.3-2.4-1-3.3-.7-.7-1.7-1.3-2.8-1.4zm1 6.1c-.4.3-1 .5-1.5.5h-.2c-.6 0-1.1-.3-1.4-.7-.4-.5-.6-1.1-.5-1.8 0-.6.3-1.1.7-1.5s1-.5 1.6-.5c.6 0 1.1.3 1.5.7.4.5.6 1.1.6 1.7-.2.6-.4 1.2-.8 1.6z"/>
    <path d="m85.6 39.7c0 .6.5 1.1 1.1 1.1.6 0 1-.5 1-1 0-.6.7-.9 2-1.5 1.4-.6 1.5-.6 1.8-1.1.3-.4.3-.9 0-1.2-.2-.2-.5-.3-1-.6l-.7-.4c-1.2-.5-1.9-.9-1.9-1.4s.7-1 2-1.5 1.5-.6 1.8-1.1c.2-.5.1-1-.4-1.3-.3-.2-.6-.4-1-.5l-.7-.3c-1.2-.4-1.9-.8-1.9-1.4s.6-.9 2-1.5 1.6-.6 1.8-1.1c.2-.4.1-.9-.2-1.2-.3-.2-.6-.4-1-.5l-.7-.2c-1.2-.5-1.9-.8-1.9-1.5 0-.6-.4-1.1-1-1.1-.6 0-1.1.5-1.1 1.1.1 1.4 1 2.7 2.4 3.1-1.3.4-2.3 1.7-2.4 3.1.1 1.4 1 2.6 2.4 3.1-1.3.5-2.3 1.7-2.4 3.1.1 1.4 1 2.6 2.4 3.1-1.3.1-2.3 1.3-2.4 2.7z"/>
    <path d="m56.6 61.4c0-.4-.3-.7-.7-.7h-.6v-1c0-.4-.3-.7-.7-.7-.4 0-.7.3-.7.7v1.1h-.7c-.4 0-.7.3-.7.7s.3.7.7.7h.6v.2.8c0 .4.3.7.7.7s.7-.3.7-.7v-1h.7c.4 0 .7-.3.7-.6 0-.1 0-.1 0-.2z"/>
    <path d="m68.2 54.6c.4 0 .7-.3.7-.7v-1h.7c.4 0 .7-.3.7-.7 0-.4-.3-.7-.7-.7h-.7v-1.1c0-.4-.3-.7-.7-.7-.4 0-.7.3-.7.7v.9h-.7c-.4 0-.7.3-.7.7s.3.7.7.7h.7v1.1c0 .5.3.8.7.8z"/>
    <path d="m75.3 38.7v-1h.8c.4 0 .7-.3.7-.7s-.3-.7-.7-.7h-.7v-.9c0-.4-.3-.7-.7-.7-.4 0-.7.3-.7.7v.9h-.7c-.4 0-.7.3-.7.7 0 .4.3.7.7.7h.7v1c0 .4.3.7.7.7.4-.1.6-.4.6-.7z"/>
    <path d="m53.1 36.6h.7v.9c0 .4.3.7.7.7.4.1.7-.2.8-.6v-.1-.9h.7c.4 0 .7-.3.7-.7s-.3-.7-.7-.7h-.7v-1c0-.4-.3-.7-.7-.7-.4 0-.7.3-.7.7v1h-.7c-.4 0-.7.3-.7.7 0 .3.2.6.6.7z"/>
    <path d="m109.5 29.8h.7v1c0 .4.3.7.7.7.4 0 .7-.3.7-.7v-1h.7c.4 0 .7-.3.7-.7 0-.4-.3-.7-.7-.7h-.7v-.9c0-.4-.3-.7-.7-.7-.4 0-.7.3-.7.7v.9h-.7c-.4 0-.7.3-.7.7s.3.7.7.7z"/>
    <path d="m117.3 57.4h.7v1c0 .4.3.7.7.7.4 0 .7-.3.7-.7v-1h.7c.4 0 .7-.3.7-.7 0-.4-.3-.7-.7-.7h-.7v-1c0-.4-.3-.7-.7-.7s-.7.3-.7.7v1h-.7c-.4 0-.7.3-.7.7s.3.7.7.7z"/>
    <path d="m127.8 88.6c-.4-.9-1.3-1.4-2.3-1.4h-1.5c-.6-16.1-12.3-29.7-28.1-32.8 0-.2 0-.4 0-.6 0-3.7-3-6.7-6.7-6.7s-6.7 3-6.7 6.7v.6c-15.8 3.1-27.5 16.7-28.1 32.8-1 0-1.8.5-2.3 1.4-.4.9-.4 1.9.2 2.7l2.9 4.2c1.7 2.3 4.4 3.7 7.3 3.6h54.8c2.9 0 5.6-1.3 7.3-3.6l3-4.2c.6-.8.7-1.9.2-2.7zm-42.5-34.7v-.2c0-2.2 1.8-4 4-4s4 1.8 4 4c0 .1.1.2.1.2h-.2-1.4-.5-1.9-1.9-.5c-.5 0-.9 0-1.4 0zm-.8 2.8c.7-.1 1.4-.2 2.1-.2h.5c1.5-.1 2.9-.1 4.4 0h.5c.7 0 1.4.1 2.1.2 15.2 2.3 26.6 15 27.3 30.4h-64.2c.7-15.3 12.1-28.1 27.3-30.4zm37.9 37.2c-1.2 1.6-3.1 2.6-5.1 2.6h-54.7c-2 0-3.9-1-5.1-2.6l-2.9-4.1h70.7z"/>
    <path d="m89.3 59c-2.2 0-4.4.2-6.5.7-.7.2-1.2.9-1 1.6.1.6.7 1 1.3 1h.3c1.9-.4 3.9-.7 5.9-.7.7 0 1.3-.6 1.3-1.4.1-.5-.5-1.2-1.3-1.2z"/>
    <path d="m74.8 62.9c-7.2 4.4-12.1 11.7-13.6 20-.1.7.3 1.4 1 1.6h.2c.6 0 1.2-.5 1.3-1.1 1.3-7.5 5.8-14.1 12.3-18.1.6-.4.9-1.2.5-1.8-.3-.7-1.1-1-1.7-.6z"/>
  </g>
</svg>
